<svg width="19" height="19" viewBox="0 0 19 19" fill="none" xmlns="http://www.w3.org/2000/svg">
<g id="Article &#226;&#134;&#146; Link" clip-path="url(#clip0_1_146)">
<path id="Vector" d="M7.426 11.9816L12.286 9.47961L7.426 6.94161V11.9816ZM9.28 3.32361C10.408 3.32361 11.494 3.34161 12.538 3.37761C13.582 3.41361 14.35 3.44361 14.842 3.46761L15.58 3.50361L15.742 3.52161C15.85 3.53361 15.928 3.54561 15.976 3.55761C16.024 3.56961 16.102 3.58161 16.21 3.59361C16.318 3.60561 16.414 3.63561 16.498 3.68361C16.582 3.73161 16.678 3.77361 16.786 3.80961C16.894 3.84561 16.996 3.91161 17.092 4.00761C17.188 4.10361 17.284 4.19361 17.38 4.27761C17.428 4.31361 17.482 4.37361 17.542 4.45761C17.602 4.54161 17.698 4.73961 17.83 5.05161C17.962 5.36361 18.052 5.69961 18.1 6.05961C18.148 6.49161 18.19 6.94761 18.226 7.42761C18.262 7.90761 18.28 8.29161 18.28 8.57961V10.3436C18.292 11.3156 18.232 12.2876 18.1 13.2596C18.052 13.6196 17.968 13.9496 17.848 14.2496C17.728 14.5496 17.62 14.7596 17.524 14.8796L17.38 15.0416C17.296 15.1376 17.2 15.2276 17.092 15.3116C16.984 15.3956 16.882 15.4556 16.786 15.4916C16.69 15.5276 16.594 15.5696 16.498 15.6176C16.402 15.6656 16.306 15.6956 16.21 15.7076L15.58 15.7976C13.9 15.9296 11.8 15.9956 9.28 15.9956L5.662 15.9236C4.63 15.8996 3.964 15.8756 3.664 15.8516L2.8 15.7616C2.56 15.7256 2.38 15.6956 2.26 15.6716C2.14 15.6476 1.966 15.5756 1.738 15.4556C1.51 15.3356 1.324 15.1976 1.18 15.0416C1.132 15.0056 1.078 14.9456 1.018 14.8616C0.958003 14.7776 0.862003 14.5796 0.730003 14.2676C0.598003 13.9556 0.508003 13.6196 0.460003 13.2596C0.412003 12.8276 0.370003 12.3716 0.334003 11.8916C0.298003 11.4116 0.280003 11.0276 0.280003 10.7396V8.97561C0.268003 8.00361 0.328003 7.03161 0.460003 6.05961C0.508003 5.68761 0.592003 5.35761 0.712003 5.06961C0.832003 4.78161 0.940003 4.57161 1.036 4.43961L1.18 4.27761C1.276 4.16961 1.372 4.07961 1.468 4.00761C1.564 3.93561 1.666 3.86961 1.774 3.80961C1.882 3.74961 1.978 3.70761 2.062 3.68361L2.35 3.59361C2.458 3.55761 2.536 3.54561 2.584 3.55761C2.632 3.56961 2.71 3.55761 2.818 3.52161C2.926 3.48561 2.98 3.47961 2.98 3.50361C4.66 3.38361 6.76 3.32361 9.28 3.32361Z" fill="#E03006"/>
</g>
<defs>
<clipPath id="clip0_1_146">
<rect width="18" height="18" fill="white" transform="matrix(1 0 0 -1 0.280029 18.6597)"/>
</clipPath>
</defs>
</svg>
