<svg width="19" height="19" viewBox="0 0 19 19" fill="none" xmlns="http://www.w3.org/2000/svg">
<g id="Article &#226;&#134;&#146; Link" clip-path="url(#clip0_1_144)">
<path id="Vector" d="M18.09 2.26174V17.0937C18.09 17.5257 17.934 17.8977 17.622 18.2097C17.31 18.5217 16.938 18.6777 16.506 18.6777H1.67397C1.24197 18.6777 0.869966 18.5217 0.557966 18.2097C0.245966 17.8977 0.0899658 17.5257 0.0899658 17.0937V2.26174C0.0899658 1.82973 0.245966 1.45774 0.557966 1.14573C0.869966 0.833735 1.24197 0.677734 1.67397 0.677734H16.506C16.938 0.677734 17.31 0.833735 17.622 1.14573C17.934 1.45774 18.09 1.82973 18.09 2.26174ZM12.114 15.0777H14.436V10.6317C14.436 9.56374 14.19 8.75373 13.698 8.20173C13.206 7.64973 12.564 7.37373 11.772 7.37373C11.208 7.37373 10.734 7.49973 10.35 7.75173C9.96597 8.00373 9.67197 8.28574 9.46797 8.59773H9.43197L9.32397 7.53574H7.32597C7.36197 8.90374 7.37997 9.70774 7.37997 9.94773V15.0777H9.68397V10.7397C9.68397 10.4877 9.70797 10.2897 9.75597 10.1457C9.99597 9.55773 10.392 9.26373 10.944 9.26373C11.724 9.26373 12.114 9.80973 12.114 10.9017V15.0777ZM5.74197 4.60174C5.51397 4.38573 5.21997 4.27773 4.85997 4.27773C4.49997 4.27773 4.20597 4.38573 3.97797 4.60174C3.74997 4.81773 3.63597 5.09974 3.63597 5.44773C3.63597 5.79574 3.74997 6.07174 3.97797 6.27573C4.20597 6.47973 4.48797 6.59373 4.82397 6.61773C5.20797 6.61773 5.51097 6.50974 5.73297 6.29373C5.95497 6.07773 6.06597 5.81374 6.06597 5.50173C6.06597 5.12973 5.95797 4.82973 5.74197 4.60174ZM3.68997 15.0777H5.99397V7.53574H3.68997V15.0777Z" fill="#E03006"/>
</g>
<defs>
<clipPath id="clip0_1_144">
<rect width="18" height="18" fill="white" transform="matrix(1 0 0 -1 0.0899658 18.6597)"/>
</clipPath>
</defs>
</svg>
