<?xml version="1.0" standalone="no"?>
<!DOCTYPE svg PUBLIC "-//W3C//DTD SVG 20010904//EN"
 "http://www.w3.org/TR/2001/REC-SVG-20010904/DTD/svg10.dtd">
<svg version="1.0" xmlns="http://www.w3.org/2000/svg"
 width="2652.000000pt" height="1768.000000pt" viewBox="0 0 2652.000000 1768.000000"
 preserveAspectRatio="xMidYMid meet">

<g transform="translate(0.000000,1768.000000) scale(0.100000,-0.100000)"
fill="#000000" stroke="none">
<path d="M13957 9678 c-3 -2449 -5 -4453 -4 -4454 1 -1 99 -5 218 -9 l216 -8
6 3033 c4 1668 7 3676 7 4462 l0 1428 -218 0 -219 0 -6 -4452z"/>
<path d="M5817 11398 c-4 -1481 -7 -3223 -7 -3870 l0 -1178 163 0 164 0 6 377
c4 207 8 1529 8 2937 1 1409 5 2834 8 3167 l6 606 1331 -2536 1331 -2536 178
-3 c98 -1 182 1 187 6 4 4 -666 1293 -1490 2863 l-1498 2854 -190 3 -191 2 -6
-2692z"/>
<path d="M6592 14081 c1 -6 676 -1295 1498 -2866 l1495 -2855 188 0 c103 0
187 4 187 9 0 5 -673 1293 -1494 2862 l-1495 2854 -191 3 c-123 1 -191 -1
-188 -7z"/>
<path d="M7352 14081 c2 -5 675 -1294 1497 -2865 l1494 -2856 191 0 191 0
1333 2518 c733 1384 1337 2524 1343 2532 7 11 9 -1039 5 -3527 l-5 -3543 168
0 168 0 6 2882 c4 1585 7 3326 7 3870 l0 988 -192 -2 -192 -3 -1410 -2672
c-776 -1470 -1413 -2673 -1417 -2673 -3 0 -638 1206 -1410 2680 l-1404 2680
-188 0 c-110 0 -187 -4 -185 -9z"/>
<path d="M10900 12308 c-519 -975 -958 -1800 -976 -1833 l-32 -60 94 -170 c51
-93 97 -171 101 -172 7 -2 2133 3986 2133 4001 0 3 -85 6 -189 6 l-188 0 -943
-1772z"/>
<path d="M12566 13998 c-192 -357 -2276 -4311 -2276 -4320 0 -21 182 -350 190
-341 4 4 555 1045 1225 2313 670 1268 1233 2333 1252 2368 l35 62 -191 0 -190
0 -45 -82z"/>
<path d="M14632 10208 l3 -3873 165 0 165 0 3 3873 2 3872 -170 0 -170 0 2
-3872z"/>
<path d="M15310 10205 l0 -3875 165 0 165 0 0 3875 0 3875 -165 0 -165 0 0
-3875z"/>
<path d="M15980 10205 l0 -3875 168 2 167 3 0 3870 0 3870 -167 3 -168 2 0
-3875z"/>
<path d="M16652 10208 l3 -3873 165 0 165 0 3 1348 2 1347 1615 0 1615 0 0
170 0 170 -1592 0 c-876 0 -1603 0 -1615 0 -23 0 -23 1 -23 165 l0 165 1615 0
1615 0 0 170 0 170 -1615 0 -1615 0 0 165 0 165 1615 0 1615 0 0 170 0 170
-1615 0 -1615 0 0 840 0 840 23 0 c12 0 774 1 1692 3 l1670 2 3 168 2 167
-1695 0 -1695 0 0 170 0 170 1695 0 1695 0 -2 168 -3 167 -1670 2 c-918 2
-1680 3 -1692 3 -23 0 -23 1 -23 165 l0 165 1695 0 1695 0 0 170 0 170 -1865
0 -1865 0 2 -3872z"/>
<path d="M13057 12328 c-8 -12 -83 -153 -166 -312 l-152 -288 -6 -2694 -6
-2694 166 0 c92 0 168 1 169 3 2 3 14 6001 11 6005 -1 2 -8 -7 -16 -20z"/>
<path d="M6490 11090 c0 -685 -3 -2031 -7 -2992 l-6 -1748 170 0 170 0 5 2671
5 2671 -154 296 c-86 164 -161 308 -169 322 -11 21 -13 -170 -14 -1220z"/>
<path d="M12228 10767 l-167 -314 -3 -2056 -3 -2057 166 0 167 0 6 2023 c4
1112 6 2179 4 2370 l-3 348 -167 -314z"/>
<path d="M7160 9059 c0 -1092 -3 -2148 -7 -2347 l-6 -362 170 0 170 0 7 2030
8 2029 -162 308 c-89 170 -166 312 -171 318 -5 5 -9 -817 -9 -1976z"/>
<path d="M11551 9475 l-162 -305 -6 -1415 -6 -1415 171 0 172 0 0 1720 c0 946
-1 1720 -3 1720 -2 0 -77 -137 -166 -305z"/>
<path d="M7830 8057 l0 -1707 163 0 164 0 6 377 c4 207 7 833 7 1390 l0 1015
-161 306 c-89 169 -165 311 -170 317 -5 5 -9 -725 -9 -1698z"/>
<path d="M6920 4239 c-40 -16 -89 -70 -96 -105 -27 -145 184 -224 286 -108 37
42 41 101 10 152 -35 57 -133 87 -200 61z"/>
<path d="M3390 2705 l0 -1475 100 0 100 0 2 1270 3 1269 606 -1267 606 -1267
118 0 117 0 602 1268 601 1269 3 -1271 2 -1271 105 0 105 0 0 1474 0 1475
-122 -2 -123 -2 -645 -1337 c-355 -736 -647 -1338 -650 -1338 -3 0 -293 602
-645 1338 l-641 1337 -122 3 -122 3 0 -1476z"/>
<path d="M18180 2705 l0 -1475 110 0 110 0 2 498 3 497 603 3 603 2 -3 98 -3
97 -603 3 -602 2 2 768 3 767 943 3 943 2 -3 103 -3 102 -1052 2 -1053 3 0
-1475z"/>
<path d="M14020 2680 l0 -1450 110 0 110 0 0 1450 0 1450 -110 0 -110 0 0
-1450z"/>
<path d="M22850 2680 l0 -1450 110 0 110 0 0 1450 0 1450 -110 0 -110 0 0
-1450z"/>
<path d="M23620 2680 l0 -1450 110 0 110 0 0 1450 0 1450 -110 0 -110 0 0
-1450z"/>
<path d="M8435 3384 c-141 -29 -243 -72 -334 -140 -79 -59 -175 -163 -214
-232 l-32 -57 -3 213 -2 212 -110 0 -110 0 0 -1075 0 -1075 110 0 110 0 0 693
c0 757 1 771 58 884 103 202 342 359 580 381 l77 7 3 98 3 97 -58 -1 c-32 -1
-67 -3 -78 -5z"/>
<path d="M9760 3383 c-302 -47 -533 -163 -722 -361 -170 -178 -264 -377 -289
-613 -22 -197 10 -373 100 -554 61 -122 125 -208 226 -304 272 -258 638 -370
1035 -317 334 45 640 242 819 526 l41 65 0 -297 0 -298 110 0 110 0 0 1075 0
1075 -110 0 -110 0 -2 -296 -3 -296 -50 78 c-62 99 -204 247 -298 312 -211
145 -440 213 -707 211 -69 -1 -136 -4 -150 -6z m484 -227 c341 -102 580 -314
678 -603 25 -73 31 -109 36 -210 8 -189 -29 -326 -130 -480 -247 -379 -760
-544 -1218 -392 -133 44 -301 147 -396 244 -233 238 -309 549 -209 848 88 260
336 487 634 581 126 40 171 45 351 42 144 -3 176 -7 254 -30z"/>
<path d="M15685 3384 c-451 -72 -788 -307 -960 -669 -74 -157 -104 -335 -85
-510 13 -122 35 -204 83 -308 152 -329 474 -569 877 -654 103 -22 373 -24 490
-4 175 30 336 89 481 177 91 56 225 168 288 244 l45 53 -45 39 c-24 22 -58 51
-76 64 l-32 25 -70 -74 c-136 -143 -337 -263 -522 -311 -205 -53 -394 -55
-583 -6 -81 20 -216 77 -216 90 0 4 350 306 779 671 701 598 778 666 768 684
-21 40 -205 214 -279 263 -147 99 -306 167 -488 208 -64 15 -392 27 -455 18z
m357 -198 c206 -40 402 -142 538 -280 26 -28 40 -49 35 -54 -6 -5 -307 -267
-670 -582 -363 -315 -674 -586 -691 -602 -25 -23 -37 -28 -55 -23 -36 12 -209
192 -248 257 -135 232 -146 499 -30 745 107 226 306 403 554 492 159 58 405
78 567 47z"/>
<path d="M6870 2305 l0 -1075 110 0 110 0 0 1075 0 1075 -110 0 -110 0 0
-1075z"/>
<path d="M12475 3366 c-266 -42 -511 -163 -691 -341 -127 -127 -217 -276 -270
-451 -26 -82 -28 -102 -28 -264 -1 -153 2 -186 22 -260 125 -457 575 -795
1102 -827 412 -25 823 141 1062 428 l47 56 -62 54 c-105 91 -93 88 -133 40
-165 -192 -397 -327 -644 -372 -95 -17 -309 -14 -405 6 -310 65 -566 256 -700
524 -97 194 -104 441 -19 643 60 142 201 314 334 404 163 112 399 184 605 184
92 0 254 -25 335 -51 162 -53 345 -171 462 -298 l68 -73 42 35 c24 20 61 51
83 70 l39 34 -99 100 c-193 193 -405 302 -689 353 -127 23 -333 25 -461 6z"/>
<path d="M19960 2776 c0 -505 3 -617 16 -686 82 -434 438 -765 914 -851 99
-18 365 -18 455 0 352 70 632 275 797 585 l37 71 1 -332 0 -333 110 0 110 0 0
1075 0 1075 -110 0 -109 0 -3 -597 c-4 -587 -4 -599 -26 -678 -114 -400 -449
-666 -890 -707 -447 -41 -857 195 -1022 589 -58 139 -60 166 -60 808 l0 585
-110 0 -110 0 0 -604z"/>
</g>
</svg>
